<?xml version="1.0" encoding="UTF-8"?>
<svg width="20px" height="20px" viewBox="0 0 20 20" version="1.1" xmlns="http://www.w3.org/2000/svg" xmlns:xlink="http://www.w3.org/1999/xlink">
    <!-- Generator: sketchtool 51.2 (57519) - http://www.bohemiancoding.com/sketch -->
    <title>C502D40B-2D6E-4C39-AFB2-6417942CB579</title>
    <desc>Created with sketchtool.</desc>
    <defs></defs>
    <g id="Page-1" stroke="none" stroke-width="1" fill="none" fill-rule="evenodd" stroke-linecap="round" stroke-linejoin="round">
        <g id="create-tournament-(step-2)" transform="translate(-151.000000, -375.000000)" stroke="#FFFFFF" stroke-width="2">
            <g id="link-copy" transform="translate(110.000000, 365.000000)">
                <g id="Group" transform="translate(42.000000, 11.000000)">
                    <polygon id="Stroke-1020" points="0 17.9998594 18 17.9998594 18 1.68735937 0 1.68735937"></polygon>
                    <path d="M18.0000281,7.38939375 L2.81250001e-05,7.38939375" id="Stroke-1021"></path>
                    <path d="M11.1428571,13.9642857 L10.2857143,13.9642857" id="Stroke-1021-Copy"></path>
                    <path d="M7.71428571,13.9642857 L6.85714286,13.9642857" id="Stroke-1021-Copy-2"></path>
                    <path d="M4.28571429,13.9642857 L3.42857143,13.9642857" id="Stroke-1021-Copy-3"></path>
                    <path d="M14.5714286,11.3928571 L13.7142857,11.3928571" id="Stroke-1021"></path>
                    <path d="M11.1428571,11.3928571 L10.2857143,11.3928571" id="Stroke-1021-Copy"></path>
                    <path d="M7.71428571,11.3928571 L6.85714286,11.3928571" id="Stroke-1021-Copy-2"></path>
                    <path d="M4.28571429,11.3928571 L3.42857143,11.3928571" id="Stroke-1021-Copy-3"></path>
                    <path d="M3.93696563,0 L3.93696563,3.34884375" id="Stroke-1022"></path>
                    <path d="M9.00002813,0 L9.00002813,3.34884375" id="Stroke-1023"></path>
                    <path d="M14.0628094,0 L14.0628094,3.34884375" id="Stroke-1024"></path>
                </g>
            </g>
        </g>
    </g>
</svg>